<?xml version="1.0" encoding="utf-8"?>
<!-- Generator: Adobe Illustrator 16.0.4, SVG Export Plug-In . SVG Version: 6.00 Build 0)  -->
<!DOCTYPE svg PUBLIC "-//W3C//DTD SVG 1.1//EN" "http://www.w3.org/Graphics/SVG/1.1/DTD/svg11.dtd">
<svg version="1.1" id="Layer_1" xmlns="http://www.w3.org/2000/svg" xmlns:xlink="http://www.w3.org/1999/xlink" x="0px" y="0px"
	 width="260.334px" height="122.399px" viewBox="-92.421 -49.518 260.334 122.399"
	 style="enable-background:new -92.421 -49.518 260.334 122.399;" xml:space="preserve">
<linearGradient id="SVGID_1_" gradientUnits="userSpaceOnUse" x1="37.7461" y1="-49.5181" x2="37.7461" y2="72.8813">
	<stop  offset="0" style="stop-color:#00D2FF"/>
	<stop  offset="0.9982" style="stop-color:#3A7BD5"/>
</linearGradient>
<polygon style="fill:none;stroke:url(#SVGID_1_);stroke-width:2;stroke-miterlimit:10;" points="37.746,-48.363 -14.253,-18.341 
	-14.253,41.704 37.746,71.726 89.746,41.704 89.746,-18.341 "/>
<g>
	<path style="fill-rule:evenodd;clip-rule:evenodd;fill:#84E1F6;" d="M110.913,10.682h57v2h-57V10.682z"/>
	<path style="fill-rule:evenodd;clip-rule:evenodd;fill:#84E1F6;" d="M-92.421,10.682h57v2h-57V10.682z"/>
</g>
<g>
	<path style="fill:#2A353F;" d="M23.206,15.874c0.483,0,0.875-0.392,0.875-0.875v-2.123h12.792v2.124
		c0,0.483,0.393,0.875,0.875,0.875c0.484,0,0.876-0.392,0.876-0.875v-2.124h12.791v2.124c0,0.483,0.393,0.875,0.876,0.875
		c0.482,0,0.875-0.392,0.875-0.875V12c0-0.483-0.393-0.875-0.875-0.875H38.623V9.057c0-0.483-0.392-0.875-0.876-0.875
		c-0.482,0-0.875,0.392-0.875,0.875v2.068H23.206c-0.484,0-0.875,0.392-0.875,0.875v2.999
		C22.331,15.482,22.722,15.874,23.206,15.874L23.206,15.874z M23.206,15.874"/>
	<path style="fill:#2A353F;" d="M33.919,20.757c0,2.111,1.718,3.828,3.828,3.828s3.829-1.717,3.829-3.828s-1.719-3.829-3.829-3.829
		S33.919,18.646,33.919,20.757L33.919,20.757z M39.825,20.757c0,1.146-0.932,2.078-2.078,2.078c-1.146,0-2.078-0.933-2.078-2.078
		c0-1.146,0.933-2.078,2.078-2.078C38.894,18.679,39.825,19.611,39.825,20.757L39.825,20.757z M39.825,20.757"/>
	<path style="fill:#2A353F;" d="M40.672,25.331h-5.849c-1.584,0-2.873,1.289-2.873,2.873v2.159c0,0.483,0.392,0.875,0.875,0.875
		h9.845c0.482,0,0.876-0.392,0.876-0.875v-2.159C43.546,26.62,42.256,25.331,40.672,25.331L40.672,25.331z M33.7,28.204
		c0-0.619,0.504-1.122,1.123-1.122h2.049v2.406H33.7V28.204z M41.795,29.488h-3.172v-2.406h2.049c0.62,0,1.123,0.503,1.123,1.122
		V29.488z M41.795,29.488"/>
	<path style="fill:#2A353F;" d="M37.747-0.218c2.11,0,3.829-1.718,3.829-3.829c0-2.11-1.719-3.828-3.829-3.828
		s-3.828,1.718-3.828,3.828C33.919-1.936,35.637-0.218,37.747-0.218L37.747-0.218z M37.747-6.125c1.146,0,2.078,0.932,2.078,2.078
		c0,1.146-0.932,2.078-2.078,2.078c-1.146,0-2.078-0.932-2.078-2.078C35.669-5.193,36.602-6.125,37.747-6.125L37.747-6.125z
		 M37.747-6.125"/>
	<path style="fill:#2A353F;" d="M32.825,6.435h9.845c0.482,0,0.876-0.392,0.876-0.875V3.401c0-1.584-1.29-2.874-2.874-2.874h-5.849
		c-1.584,0-2.873,1.29-2.873,2.874v2.158C31.95,6.043,32.342,6.435,32.825,6.435L32.825,6.435z M41.795,3.401v1.283h-3.172V2.277
		h2.049C41.292,2.277,41.795,2.781,41.795,3.401L41.795,3.401z M33.7,3.401c0-0.62,0.504-1.123,1.123-1.123h2.049v2.407H33.7V3.401z
		 M33.7,3.401"/>
	<path style="fill:#2A353F;" d="M48.461,20.757c0,2.111,1.717,3.828,3.829,3.828c2.11,0,3.828-1.717,3.828-3.828
		s-1.718-3.829-3.828-3.829C50.178,16.928,48.461,18.646,48.461,20.757L48.461,20.757z M54.368,20.757
		c0,1.146-0.933,2.078-2.078,2.078c-1.146,0-2.078-0.933-2.078-2.078c0-1.146,0.932-2.078,2.078-2.078
		C53.436,18.679,54.368,19.611,54.368,20.757L54.368,20.757z M54.368,20.757"/>
	<path style="fill:#2A353F;" d="M55.214,25.331h-5.849c-1.585,0-2.873,1.289-2.873,2.873v2.159c0,0.483,0.392,0.875,0.875,0.875
		h9.845c0.483,0,0.875-0.392,0.875-0.875v-2.159C58.087,26.62,56.798,25.331,55.214,25.331L55.214,25.331z M48.242,28.204
		c0-0.619,0.504-1.122,1.123-1.122h2.049v2.406h-3.172V28.204z M56.337,29.488h-3.173v-2.406h2.05c0.619,0,1.122,0.503,1.122,1.122
		L56.337,29.488L56.337,29.488z M56.337,29.488"/>
	<path style="fill:#2A353F;" d="M23.206,24.585c2.111,0,3.828-1.717,3.828-3.828s-1.717-3.829-3.828-3.829
		c-2.112,0-3.829,1.718-3.829,3.829C19.377,22.867,21.094,24.585,23.206,24.585L23.206,24.585z M23.206,18.679
		c1.146,0,2.078,0.932,2.078,2.078c0,1.146-0.932,2.078-2.078,2.078c-1.147,0-2.079-0.933-2.079-2.078
		C21.127,19.611,22.059,18.679,23.206,18.679L23.206,18.679z M23.206,18.679"/>
	<path style="fill:#2A353F;" d="M26.13,25.331h-5.849c-1.584,0-2.873,1.289-2.873,2.873v2.159c0,0.483,0.392,0.875,0.875,0.875
		h9.844c0.484,0,0.875-0.392,0.875-0.875v-2.159C29.003,26.62,27.714,25.331,26.13,25.331L26.13,25.331z M19.159,28.204
		c0-0.619,0.503-1.122,1.123-1.122h2.049v2.406h-3.172V28.204z M27.252,29.488h-3.172v-2.406h2.049c0.619,0,1.123,0.503,1.123,1.122
		V29.488z M27.252,29.488"/>
</g>
</svg>
