<?xml version="1.0" encoding="utf-8"?>
<!-- Generator: Adobe Illustrator 16.0.4, SVG Export Plug-In . SVG Version: 6.00 Build 0)  -->
<!DOCTYPE svg PUBLIC "-//W3C//DTD SVG 1.1//EN" "http://www.w3.org/Graphics/SVG/1.1/DTD/svg11.dtd">
<svg version="1.1" id="Layer_1" xmlns="http://www.w3.org/2000/svg" xmlns:xlink="http://www.w3.org/1999/xlink" x="0px" y="0px"
	 width="260.334px" height="122.399px" viewBox="-92.421 -49.518 260.334 122.399"
	 enable-background="new -92.421 -49.518 260.334 122.399" xml:space="preserve">
<linearGradient id="SVGID_1_" gradientUnits="userSpaceOnUse" x1="-164.7529" y1="251.9172" x2="-164.7529" y2="129.5178" gradientTransform="matrix(1 0 0 -1 202.5 202.3989)">
	<stop  offset="0" style="stop-color:#00D2FF"/>
	<stop  offset="0.9982" style="stop-color:#3A7BD5"/>
</linearGradient>
<polygon fill="none" stroke="url(#SVGID_1_)" stroke-width="2" stroke-miterlimit="10" points="37.746,-48.363 -14.253,-18.341 
	-14.253,41.704 37.746,71.726 89.746,41.704 89.746,-18.341 "/>
<g>
	<path fill="#84E1F6" d="M110.913,10.682h57v2h-57V10.682z"/>
	<path fill="#84E1F6" d="M-92.421,10.682h57v2h-57V10.682z"/>
</g>
<g>
	<g>
		<defs>
			<rect id="SVGID_2_" x="14.658" y="-7.452" width="46.176" height="40.267"/>
		</defs>
		<clipPath id="SVGID_3_">
			<use xlink:href="#SVGID_2_"  overflow="visible"/>
		</clipPath>
		<path clip-path="url(#SVGID_3_)" fill="#2A353F" d="M59.819,2.945l-9.381-9.379c-0.594-0.595-1.383-0.922-2.223-0.922
			c-0.84,0-1.629,0.327-2.223,0.922L43.788-4.23c-0.339,0.338-0.579,0.738-0.732,1.162L32.742-4.915c-0.001,0-0.002,0-0.002,0
			c-4.637-0.921-9.166,2.094-10.101,6.733l-0.476,2.359c-0.525,2.607,1.168,5.152,3.773,5.679c2.606,0.523,5.154-1.167,5.679-3.773
			l0.289-1.441l4.626,0.403l12.08,12.078l2.188,2.188c0.443,0.443,0.443,1.165,0,1.608c-0.442,0.441-1.164,0.441-1.607,0
			l-5.864-5.864c-0.408-0.409-1.069-0.409-1.479,0c-0.407,0.408-0.407,1.068,0,1.479l5.864,5.862
			c0.215,0.215,0.334,0.501,0.334,0.806c0,0.304-0.119,0.589-0.334,0.802c-0.442,0.445-1.165,0.445-1.607,0l-5.864-5.862
			c-0.408-0.409-1.069-0.409-1.479,0c-0.408,0.409-0.408,1.069,0,1.479l5.863,5.863c0.444,0.442,0.444,1.164,0,1.607
			c-0.214,0.214-0.501,0.333-0.804,0.333c-0.303,0-0.59-0.119-0.804-0.333l-5.863-5.864c-0.409-0.408-1.072-0.408-1.479,0
			c-0.408,0.41-0.408,1.071,0,1.479l5.863,5.865c0.443,0.442,0.443,1.162,0,1.606c-0.442,0.442-1.165,0.444-1.606,0L16.444,6.691
			c-0.41-0.407-1.071-0.407-1.48,0c-0.409,0.41-0.409,1.071,0,1.481l5.722,5.722l-1.644,1.643c-0.538,0.538-0.835,1.254-0.835,2.015
			s0.297,1.478,0.835,2.016l0.537,0.537c0.471,0.471,1.076,0.756,1.73,0.819c0.065,0.654,0.349,1.262,0.821,1.729l0.535,0.538
			c0.483,0.482,1.098,0.752,1.73,0.817c0.063,0.655,0.35,1.26,0.821,1.732l0.536,0.535c0.471,0.472,1.077,0.758,1.73,0.82
			c0.065,0.654,0.351,1.26,0.821,1.73l0.537,0.536c0.555,0.559,1.285,0.833,2.013,0.833c0.73,0,1.459-0.275,2.017-0.833l1.643-1.643
			l3.938,3.939c0.61,0.609,1.422,0.944,2.283,0.944c0.862,0,1.673-0.335,2.283-0.944c0.578-0.578,0.904-1.34,0.938-2.149
			c0.812-0.032,1.57-0.36,2.148-0.938c0.596-0.598,0.905-1.368,0.938-2.149c0.78-0.032,1.553-0.344,2.147-0.938
			c0.597-0.595,0.907-1.367,0.938-2.149c0.782-0.031,1.554-0.341,2.147-0.938c1.261-1.258,1.261-3.307,0-4.564l-1.447-1.45
			l5.303-5.304l3.688-3.688C61.046,6.165,61.046,4.171,59.819,2.945L59.819,2.945z M20.521,18.086c-0.294-0.293-0.294-0.776,0-1.071
			l1.542-1.541l1.607,1.607l-1.541,1.541c-0.296,0.296-0.776,0.296-1.072,0L20.521,18.086z M23.609,21.173
			c-0.296-0.294-0.296-0.776,0-1.069l1.541-1.543l1.607,1.609l-1.541,1.541c-0.294,0.294-0.776,0.294-1.071,0L23.609,21.173z
			 M26.695,24.262c-0.143-0.144-0.222-0.335-0.222-0.537c0-0.203,0.079-0.392,0.222-0.534l1.541-1.542l1.61,1.607l-1.542,1.542
			c-0.295,0.294-0.776,0.294-1.072,0L26.695,24.262z M31.389,27.884c-0.293,0.296-0.775,0.296-1.069,0l-0.536-0.536
			c-0.297-0.297-0.297-0.777,0-1.073l1.539-1.541l1.609,1.608L31.389,27.884z M49.349,14.904L37.741,3.295
			c-0.174-0.173-0.403-0.28-0.649-0.303l-5.935-0.52C31.125,2.47,31.095,2.47,31.064,2.47c-0.492,0-0.924,0.348-1.024,0.839
			l-0.474,2.36c-0.297,1.476-1.74,2.433-3.216,2.135c-0.714-0.143-1.33-0.558-1.734-1.165c-0.402-0.605-0.545-1.336-0.401-2.048
			l0.475-2.36c0.709-3.516,4.145-5.8,7.662-5.091c0.008,0.001,0.014,0.004,0.021,0.004l10.165,1.82l11.375,11.375L49.349,14.904z
			 M58.341,5.913l-2.949,2.948L45.268-1.264C45.07-1.462,44.96-1.726,44.96-2.008c0-0.282,0.109-0.545,0.308-0.745l2.205-2.205
			c0.197-0.198,0.464-0.309,0.743-0.309c0.281,0,0.545,0.11,0.744,0.309l9.381,9.381c0.197,0.199,0.308,0.463,0.308,0.745
			C58.648,5.45,58.538,5.714,58.341,5.913L58.341,5.913z"/>
	</g>
</g>
</svg>
