<?xml version="1.0" encoding="utf-8"?>
<!-- Generator: Adobe Illustrator 16.0.4, SVG Export Plug-In . SVG Version: 6.00 Build 0)  -->
<!DOCTYPE svg PUBLIC "-//W3C//DTD SVG 1.1//EN" "http://www.w3.org/Graphics/SVG/1.1/DTD/svg11.dtd">
<svg version="1.1" id="Layer_1" xmlns="http://www.w3.org/2000/svg" xmlns:xlink="http://www.w3.org/1999/xlink" x="0px" y="0px"
	 width="260.334px" height="122.399px" viewBox="-92.421 -49.518 260.334 122.399"
	 style="enable-background:new -92.421 -49.518 260.334 122.399;" xml:space="preserve">
<g>
	<linearGradient id="SVGID_1_" gradientUnits="userSpaceOnUse" x1="37.7461" y1="-49.5181" x2="37.7461" y2="72.8813">
		<stop  offset="0" style="stop-color:#00D2FF"/>
		<stop  offset="0.9982" style="stop-color:#3A7BD5"/>
	</linearGradient>
	<polygon style="fill:none;stroke:url(#SVGID_1_);stroke-width:2;stroke-miterlimit:10;" points="37.746,-48.363 -14.253,-18.341 
		-14.253,41.704 37.746,71.726 89.746,41.704 89.746,-18.341 	"/>
	<g>
		<path style="fill:#2A353F;" d="M49.49,7.931v-9.538c0.93-0.104,1.654-0.896,1.654-1.855c0-1.029-0.834-1.866-1.861-1.866h-8.275
			c-1.027,0-1.863,0.837-1.863,1.866c0,0.96,0.727,1.752,1.656,1.855v9.538c-1.877,0.731-3.547,1.931-4.85,3.489
			c-0.221,0.263-0.188,0.657,0.076,0.876c0.115,0.097,0.258,0.146,0.398,0.146c0.178,0,0.354-0.076,0.475-0.223
			c1.256-1.499,2.889-2.629,4.725-3.266c0.25-0.087,0.416-0.323,0.416-0.588v-9.962h3.52c0.342,0,0.619-0.278,0.619-0.622
			s-0.277-0.623-0.619-0.623h-4.553c-0.342,0-0.621-0.278-0.621-0.622c0-0.343,0.279-0.622,0.621-0.622h8.275
			c0.342,0,0.621,0.279,0.621,0.622c0,0.344-0.279,0.622-0.621,0.622h-1.24c-0.344,0-0.621,0.279-0.621,0.623
			s0.277,0.622,0.621,0.622h0.207v9.961c0,0.266,0.166,0.502,0.416,0.589c4.328,1.503,7.238,5.6,7.238,10.195
			c0,5.947-4.826,10.787-10.76,10.787c-1.398,0-2.76-0.265-4.045-0.79c-0.318-0.129-0.68,0.024-0.809,0.343s0.023,0.681,0.342,0.811
			c1.434,0.585,2.953,0.881,4.512,0.881c6.617,0,12-5.396,12-12.031C57.145,14.174,54.088,9.72,49.49,7.931L49.49,7.931z
			 M49.49,7.931"/>
		<path d="M50.393,21.339c0,0.344-0.279,0.623-0.621,0.623c-0.344,0-0.621-0.279-0.621-0.623s0.277-0.623,0.621-0.623
			C50.113,20.716,50.393,20.995,50.393,21.339L50.393,21.339z M50.393,21.339"/>
		<path d="M47.91,23.828c0,0.344-0.279,0.623-0.621,0.623c-0.344,0-0.621-0.279-0.621-0.623c0-0.345,0.277-0.622,0.621-0.622
			C47.631,23.206,47.91,23.483,47.91,23.828L47.91,23.828z M47.91,23.828"/>
		<path style="fill:#2A353F;" d="M41.641,26.667c-0.311-0.146-0.682-0.011-0.826,0.3c-0.145,0.312-0.012,0.683,0.299,0.828
			c1.268,0.596,2.625,0.897,4.031,0.897c5.248,0,9.518-4.281,9.518-9.543c0-1.677-0.439-3.326-1.273-4.771
			c-0.127-0.22-0.373-0.34-0.623-0.305l-0.227,0.032c-0.027,0.003-0.055,0.009-0.084,0.017c-0.938,0.268-1.443,0.675-1.85,1.002
			c-0.451,0.364-0.748,0.603-1.607,0.603c-0.732,0-1.064-0.284-1.521-0.679c-0.508-0.437-1.139-0.98-2.332-0.98
			s-1.824,0.544-2.33,0.98c-0.457,0.395-0.789,0.679-1.521,0.679c-0.859,0-1.156-0.238-1.607-0.603
			c-0.406-0.327-0.912-0.734-1.852-1.002c-0.025-0.008-0.055-0.014-0.084-0.017l-0.225-0.032c-0.25-0.035-0.496,0.085-0.623,0.304
			c-0.004,0.009-0.01,0.019-0.016,0.029c-0.172,0.298-0.068,0.679,0.229,0.849c0.129,0.075,0.273,0.099,0.41,0.075l0.01,0.002
			c0.67,0.196,1.012,0.472,1.373,0.764c0.535,0.431,1.088,0.876,2.385,0.876c1.193,0,1.824-0.543,2.33-0.98
			c0.459-0.395,0.789-0.68,1.521-0.68c0.734,0,1.064,0.285,1.523,0.681c0.506,0.437,1.137,0.979,2.33,0.979
			c1.297,0,1.85-0.445,2.385-0.876c0.318-0.258,0.623-0.502,1.148-0.691c0.584,1.155,0.891,2.44,0.891,3.745
			c0,4.576-3.713,8.299-8.277,8.299C43.92,27.448,42.74,27.187,41.641,26.667L41.641,26.667z M41.641,26.667"/>
		<path style="fill:#2A353F;" d="M33.229,8.261V-4.097c0.93-0.104,1.654-0.896,1.654-1.855c0-1.029-0.834-1.866-1.861-1.866h-8.276
			c-1.026,0-1.862,0.837-1.862,1.866c0,0.96,0.725,1.752,1.655,1.855v9.973c0,0.344,0.278,0.623,0.621,0.623
			c0.342,0,0.621-0.279,0.621-0.623v-9.961h3.518c0.342,0,0.621-0.278,0.621-0.622s-0.278-0.622-0.621-0.622h-4.552
			c-0.342,0-0.621-0.279-0.621-0.623s0.279-0.622,0.621-0.622h8.276c0.342,0,0.621,0.278,0.621,0.622s-0.279,0.623-0.621,0.623
			H31.78c-0.343,0-0.62,0.278-0.62,0.622s0.277,0.622,0.62,0.622h0.207V8.366c0,0.069,0.011,0.138,0.034,0.203l6.031,17.488
			c0.365,1.057,0.281,2.037-0.23,2.759c-0.514,0.724-1.41,1.12-2.525,1.12H22.47c-1.115,0-2.012-0.396-2.524-1.12
			c-0.514-0.722-0.596-1.702-0.231-2.759l6.032-17.488c0.112-0.324-0.06-0.68-0.384-0.791c-0.324-0.113-0.678,0.06-0.79,0.385
			l-6.033,17.488c-0.499,1.446-0.359,2.827,0.394,3.887c0.753,1.059,2.009,1.643,3.536,1.643h12.827
			c1.527,0,2.783-0.584,3.537-1.643c0.752-1.06,0.893-2.44,0.393-3.887L33.229,8.261z M33.229,8.261"/>
		<rect x="18.247" y="-7.818" style="fill:none;" width="39" height="38.999"/>
		<path style="fill:#2A353F;" d="M23.598,21.122c-0.158-0.122-0.366-0.161-0.558-0.104c-0.192,0.057-0.345,0.205-0.41,0.393
			l-1.743,5.054c-0.229,0.665-0.205,1.243,0.069,1.631c0.274,0.385,0.812,0.597,1.514,0.597h12.827c0.703,0,1.24-0.212,1.514-0.597
			c0.273-0.388,0.299-0.966,0.07-1.631l-1.744-5.054c-0.066-0.188-0.219-0.336-0.41-0.393C34.535,20.96,34.328,21,34.17,21.122
			c-0.338,0.265-0.658,0.466-1.434,0.466c-0.732,0-1.064-0.285-1.521-0.68c-0.508-0.437-1.139-0.979-2.332-0.979
			c-1.193,0-1.824,0.543-2.331,0.979c-0.458,0.395-0.789,0.68-1.523,0.68C24.256,21.588,23.936,21.387,23.598,21.122L23.598,21.122z
			 M27.361,21.852c0.458-0.396,0.789-0.679,1.522-0.679s1.064,0.284,1.522,0.679c0.506,0.438,1.137,0.98,2.331,0.98
			c0.648,0,1.115-0.116,1.48-0.28l1.49,4.319c0.088,0.256,0.092,0.422,0.084,0.495c-0.064,0.032-0.225,0.082-0.494,0.082H22.47
			c-0.27,0-0.429-0.05-0.494-0.082c-0.008-0.073-0.004-0.239,0.084-0.495l1.49-4.319c0.365,0.164,0.832,0.28,1.48,0.28
			C26.224,22.832,26.855,22.29,27.361,21.852L27.361,21.852z M27.361,21.852"/>
	</g>
</g>
<g>
	<path style="fill-rule:evenodd;clip-rule:evenodd;fill:#84E1F6;" d="M110.913,10.682h57v2h-57V10.682z"/>
	<path style="fill-rule:evenodd;clip-rule:evenodd;fill:#84E1F6;" d="M-92.421,10.682h57v2h-57V10.682z"/>
</g>
</svg>
